<svg viewBox="0 0 512 512" xml:space="preserve" xmlns="http://www.w3.org/2000/svg" enable-background="new 0 0 512 512"><path d="M448.9 64H416v40.7c0 22.5-23.2 39.3-47.2 39.3S320 127.2 320 104.7V64H192v40.7c0 22.5-24 39.3-48 39.3s-48-16.8-48-39.3V64H63.1C45.9 64 32 77.3 32 93.4v357.5C32 467 45.9 480 63.1 480h385.8c17.2 0 31.1-13 31.1-29.2V93.4c0-16.1-13.9-29.4-31.1-29.4zM432 419.9c0 6.6-5.8 12-12.8 12l-326.5.1c-7-.3-12.7-5.6-12.7-12.2V188.3c0-6.9 5.9-12.3 13.3-12.3h325.5c7.3 0 13.2 5.3 13.2 12.1v231.8z" fill="#11a984" class="fill-000000"></path><path d="M176 96c0 17.7-14.3 32-32 32s-32-14.3-32-32V64c0-17.7 14.3-32 32-32s32 14.3 32 32v32zM400 96c0 17.7-14.3 32-32 32s-32-14.3-32-32V64c0-17.7 14.3-32 32-32s32 14.3 32 32v32z" fill="#11a984" class="fill-000000"></path></svg>