<svg viewBox="0 0 48 48" xml:space="preserve" xmlns="http://www.w3.org/2000/svg"><path d="M30.563 48H2.257l.082-1.075c.459-6.071 3.888-9.696 10.197-10.785V35h-2v-6h12v6h-2v1.14c6.223 1.075 9.48 4.61 9.947 10.785l.08 1.075zm-26.11-2h23.918c-.69-4.807-3.496-7.292-8.966-8.008l-.87-.114V33h2v-2h-8v2h2v4.877l-.87.114c-5.55.727-8.503 3.282-9.212 8.009zM20 27.015a.999.999 0 0 1-.707-1.707L43.642.958a.999.999 0 1 1 1.414 1.414l-24.349 24.35a.997.997 0 0 1-.707.293z" fill="#11a984" class="fill-000000"></path><path d="M23.136 23.878a.997.997 0 0 1-.707-.293c-3.172-3.172-.687-10.626 5.657-16.97 3.027-3.027 6.427-5.291 9.573-6.375a1 1 0 0 1 1.325.945v6.814a1 1 0 0 1-2 0V2.66c-2.474 1.119-5.136 3.02-7.485 5.369-5.834 5.833-7.664 12.135-5.657 14.142a.999.999 0 0 1-.706 1.707z" fill="#11a984" class="fill-000000"></path><path d="M40.45 16H31a1 1 0 0 1 0-2h9.45a1 1 0 0 1 0 2zM26.093 24.942c-1.493 0-2.75-.442-3.664-1.356a.999.999 0 1 1 1.414-1.414c1.625 1.624 5.47.693 9.646-2.171H27a1 1 0 0 1 0-2h9.45a1.001 1.001 0 0 1 .643 1.766c-4.021 3.371-7.988 5.175-11 5.175zM43.45 12H35a1 1 0 0 1 0-2h7.862c1.847-3.435 2.145-6.263.78-7.628A.999.999 0 1 1 45.056.958c2.139 2.139 1.87 5.98-.738 10.539a1 1 0 0 1-.868.503z" fill="#11a984" class="fill-000000"></path></svg>